<svg width="1600" height="800" viewBox="0 0 1600 800" fill="none" xmlns="http://www.w3.org/2000/svg">
<g clip-path="url(#clip0)">
<rect width="1600" height="800" fill="#1d3f83"/>
<rect width="1600" height="800" fill="url(#paint0_linear)"/>
<path fill-rule="evenodd" clip-rule="evenodd" d="M1509.46 833.244C1967.5 375.198 2189.91 -145.036 2006.21 -328.731C1822.52 -512.426 1302.29 -290.02 844.241 168.026C386.195 626.072 163.789 1146.31 347.484 1330C531.179 1513.7 1051.41 1291.29 1509.46 833.244Z" stroke="#6969FF" stroke-width="3.6" stroke-linecap="round" stroke-dasharray="1 40"/>
<path opacity="0.7" d="M671.6 1464.64C927.6 1357.6 1227.16 1150.64 1507.4 870.3C2059.56 318.14 2327.64 -308.96 2106.22 -530.4" stroke="#6969FF" stroke-width="3.6" stroke-linecap="round" stroke-dasharray="0 12"/>
<path opacity="0.5" d="M1595.88 -822.56C1280.84 -695.5 908.72 -440.74 561.12 -93.14C-108.4 576.38 -433.5 1336.86 -164.88 1605.32" stroke="#6969FF" stroke-width="3.6" stroke-linecap="round" stroke-dasharray="1 30"/>
<path opacity="0.9" d="M489.74 1612.22C806.68 1486.42 1182.56 1230.22 1533.46 879.22C2202.98 209.7 2528.08 -550.78 2259.46 -819.24" stroke="#6969FF" stroke-width="3.6" stroke-linecap="round" stroke-dasharray="0 11.53"/>
<path opacity="0.4" d="M1191.5 -987.6C921.5 -818.76 638.38 -593.34 367.24 -322.2C-364.94 410.02 -763.72 1230.18 -615.58 1638.96" stroke="#6969FF" stroke-width="3.6" stroke-linecap="round" stroke-linejoin="round" stroke-dasharray="1 30"/>
<path opacity="0.9" d="M583.36 1639.4C899.88 1464.44 1242.92 1204.76 1568.56 879.12C2245.7 202.02 2637.68 -550.44 2575.6 -983.08" stroke="#6969FF" stroke-width="3.6" stroke-linecap="round" stroke-dasharray="0 11.53"/>
<path d="M1481.86 963.88C1510.89 936.16 1539.79 907.907 1568.56 879.12C1671.62 776.02 1768.1 671.22 1857.36 566.02" stroke="url(#paint1_linear)" stroke-width="2"/>
<path d="M796.64 23.8801L640.28 77.4201L1393.94 832.54L1559.38 787.84L796.64 23.8801V23.8801Z" fill="url(#paint2_linear)"/>
<path d="M1626.98 351.68L1557.52 281.62L1518.56 410.88L1591.76 482.96L1626.98 351.68V351.68Z" fill="url(#paint3_linear)"/>
<path d="M1353.94 455.94L1426.12 527.46L1591.56 482.76L1519.48 411.6L1353.94 455.94V455.94Z" fill="url(#paint4_linear)"/>
<path d="M476.04 631.44L822.96 979.44L945.54 946.34L598.66 598.56L476.04 631.44V631.44Z" fill="url(#paint5_linear)"/>
<path d="M-458.64 789.34C-400.64 336.32 -203.34 -61.08 93.5798 -329.1C697 -873.82 1607.58 -577.62 2105.58 255" stroke="url(#paint6_linear)" stroke-width="1.4"/>
<path d="M-60.9197 1234.02C-124.5 721.56 -27.4797 214.22 208.78 -192.56C688.94 -1019.26 1719.52 -1058.26 2466.78 -354.82" stroke="url(#paint7_linear)" stroke-width="1.4"/>
<path d="M-460.28 794.46C-48.2 129.08 1330.66 -129.32 2102 254.02" stroke="url(#paint8_linear)" stroke-width="1.4"/>
<path d="M509.96 188.1C518.156 188.1 524.8 181.456 524.8 173.26C524.8 165.064 518.156 158.42 509.96 158.42C501.764 158.42 495.12 165.064 495.12 173.26C495.12 181.456 501.764 188.1 509.96 188.1Z" fill="url(#paint9_radial)"/>
<path d="M509.94 177.3C512.216 177.3 514.06 175.455 514.06 173.18C514.06 170.905 512.216 169.06 509.94 169.06C507.665 169.06 505.82 170.905 505.82 173.18C505.82 175.455 507.665 177.3 509.94 177.3Z" fill="#8FBEFF"/>
<path d="M93.4601 55.0999C101.656 55.0999 108.3 48.4558 108.3 40.2599C108.3 32.064 101.656 25.4199 93.4601 25.4199C85.2642 25.4199 78.6201 32.064 78.6201 40.2599C78.6201 48.4558 85.2642 55.0999 93.4601 55.0999Z" fill="url(#paint10_radial)"/>
<path d="M93.4398 44.3201C95.7152 44.3201 97.5598 42.4755 97.5598 40.2001C97.5598 37.9247 95.7152 36.0801 93.4398 36.0801C91.1644 36.0801 89.3198 37.9247 89.3198 40.2001C89.3198 42.4755 91.1644 44.3201 93.4398 44.3201Z" fill="#8FBEFF"/>
<path d="M1415.04 735.92C1423.24 735.92 1429.88 729.276 1429.88 721.08C1429.88 712.884 1423.24 706.24 1415.04 706.24C1406.84 706.24 1400.2 712.884 1400.2 721.08C1400.2 729.276 1406.84 735.92 1415.04 735.92Z" fill="url(#paint11_radial)"/>
<path d="M1415.02 725.12C1417.3 725.12 1419.14 723.276 1419.14 721C1419.14 718.725 1417.3 716.88 1415.02 716.88C1412.74 716.88 1410.9 718.725 1410.9 721C1410.9 723.276 1412.74 725.12 1415.02 725.12Z" fill="white"/>
</g>
<defs>
<linearGradient id="paint0_linear" x1="1600" y1="800" x2="0" y2="0" gradientUnits="userSpaceOnUse">
<stop stop-color="#252566"/>
<stop offset="1" stop-color="#1d3f83"/>
</linearGradient>
<linearGradient id="paint1_linear" x1="1839.8" y1="1039.67" x2="1939.25" y2="587" gradientUnits="userSpaceOnUse">
<stop offset="0.02" stop-color="#1F9AFF" stop-opacity="0.9"/>
<stop offset="0.09" stop-color="#6369FF" stop-opacity="0.81"/>
<stop offset="0.14" stop-color="#6369FF" stop-opacity="0.76"/>
<stop offset="0.57" stop-color="#6369FF" stop-opacity="0.36"/>
<stop offset="0.86" stop-color="#6369FF" stop-opacity="0.1"/>
<stop offset="1" stop-color="#6369FF" stop-opacity="0.01"/>
</linearGradient>
<linearGradient id="paint2_linear" x1="-7393.04" y1="-4063.76" x2="-7393.04" y2="-3034.2" gradientUnits="userSpaceOnUse">
<stop stop-color="#6380FF" stop-opacity="0.5"/>
<stop offset="0.27" stop-color="#6380FF" stop-opacity="0.35"/>
<stop offset="0.77" stop-color="#6380FF" stop-opacity="0.1"/>
<stop offset="1" stop-color="#6380FF" stop-opacity="0.01"/>
</linearGradient>
<linearGradient id="paint3_linear" x1="-6486.98" y1="-3240.34" x2="-6409.12" y2="-3156.23" gradientUnits="userSpaceOnUse">
<stop stop-color="#6380FF" stop-opacity="0.4"/>
<stop offset="0.09" stop-color="#6380FF" stop-opacity="0.35"/>
<stop offset="0.62" stop-color="#6380FF" stop-opacity="0.1"/>
<stop offset="0.87" stop-color="#6380FF" stop-opacity="0.01"/>
</linearGradient>
<linearGradient id="paint4_linear" x1="-6678.08" y1="-3293.14" x2="-6685.98" y2="-3168.93" gradientUnits="userSpaceOnUse">
<stop stop-color="#6380FF" stop-opacity="0.8"/>
<stop offset="0.04" stop-color="#6380FF" stop-opacity="0.76"/>
<stop offset="0.52" stop-color="#6380FF" stop-opacity="0.36"/>
<stop offset="0.85" stop-color="#6380FF" stop-opacity="0.1"/>
<stop offset="1" stop-color="#6380FF" stop-opacity="0.01"/>
</linearGradient>
<linearGradient id="paint5_linear" x1="-7541.69" y1="-3815.29" x2="-7620.01" y2="-3370.39" gradientUnits="userSpaceOnUse">
<stop stop-color="#6380FF" stop-opacity="0.8"/>
<stop offset="0.04" stop-color="#6380FF" stop-opacity="0.76"/>
<stop offset="0.47" stop-color="#6380FF" stop-opacity="0.36"/>
<stop offset="0.77" stop-color="#6380FF" stop-opacity="0.1"/>
<stop offset="0.91" stop-color="#6380FF" stop-opacity="0.01"/>
</linearGradient>
<linearGradient id="paint6_linear" x1="-459.32" y1="789.394" x2="2106.24" y2="789.394" gradientUnits="userSpaceOnUse">
<stop stop-color="#6369FF" stop-opacity="0.8"/>
<stop offset="0.06" stop-color="#6369FF" stop-opacity="0.01"/>
<stop offset="0.1" stop-color="#6369FF" stop-opacity="0.12"/>
<stop offset="0.18" stop-color="#6369FF" stop-opacity="0.33"/>
<stop offset="0.25" stop-color="#6369FF" stop-opacity="0.5"/>
<stop offset="0.33" stop-color="#6369FF" stop-opacity="0.65"/>
<stop offset="0.41" stop-color="#6369FF" stop-opacity="0.76"/>
<stop offset="0.49" stop-color="#6369FF" stop-opacity="0.84"/>
<stop offset="0.57" stop-color="#6369FF" stop-opacity="0.88"/>
<stop offset="0.64" stop-color="#6369FF" stop-opacity="0.9"/>
<stop offset="1" stop-color="white" stop-opacity="0.9"/>
</linearGradient>
<linearGradient id="paint7_linear" x1="-80.6797" y1="1234.2" x2="2467.34" y2="1234.2" gradientUnits="userSpaceOnUse">
<stop stop-color="white" stop-opacity="0.9"/>
<stop offset="0.04" stop-color="#6369FF" stop-opacity="0.9"/>
<stop offset="0.09" stop-color="#6369FF" stop-opacity="0.77"/>
<stop offset="0.17" stop-color="#6369FF" stop-opacity="0.59"/>
<stop offset="0.26" stop-color="#6369FF" stop-opacity="0.43"/>
<stop offset="0.35" stop-color="#6369FF" stop-opacity="0.3"/>
<stop offset="0.45" stop-color="#6369FF" stop-opacity="0.19"/>
<stop offset="0.55" stop-color="#6369FF" stop-opacity="0.11"/>
<stop offset="0.67" stop-color="#6369FF" stop-opacity="0.05"/>
<stop offset="0.8" stop-color="#6369FF" stop-opacity="0.01"/>
<stop offset="1" stop-color="#6369FF" stop-opacity="0.01"/>
</linearGradient>
<linearGradient id="paint8_linear" x1="2019.18" y1="1558.01" x2="2343.55" y2="-407.175" gradientUnits="userSpaceOnUse">
<stop stop-color="white" stop-opacity="0.9"/>
<stop offset="0.19" stop-color="#6369FF" stop-opacity="0.9"/>
<stop offset="0.29" stop-color="#6369FF" stop-opacity="0.89"/>
<stop offset="0.36" stop-color="#6369FF" stop-opacity="0.85"/>
<stop offset="0.42" stop-color="#6369FF" stop-opacity="0.78"/>
<stop offset="0.49" stop-color="#6369FF" stop-opacity="0.69"/>
<stop offset="0.55" stop-color="#6369FF" stop-opacity="0.57"/>
<stop offset="0.6" stop-color="#6369FF" stop-opacity="0.43"/>
<stop offset="0.66" stop-color="#6369FF" stop-opacity="0.26"/>
<stop offset="0.71" stop-color="#6369FF" stop-opacity="0.06"/>
<stop offset="0.72" stop-color="#6369FF" stop-opacity="0.01"/>
<stop offset="1" stop-color="#6369FF" stop-opacity="0.9"/>
</linearGradient>
<radialGradient id="paint9_radial" cx="0" cy="0" r="1" gradientUnits="userSpaceOnUse" gradientTransform="translate(509.88 173.4) scale(10)">
<stop offset="0.21" stop-color="white" stop-opacity="0.2"/>
<stop offset="0.58" stop-color="#B0B3FF" stop-opacity="0.1"/>
<stop offset="1" stop-color="#6369FF" stop-opacity="0.01"/>
</radialGradient>
<radialGradient id="paint10_radial" cx="0" cy="0" r="1" gradientUnits="userSpaceOnUse" gradientTransform="translate(93.3801 40.4199) scale(10)">
<stop offset="0.21" stop-color="white" stop-opacity="0.2"/>
<stop offset="0.58" stop-color="#B0B3FF" stop-opacity="0.1"/>
<stop offset="1" stop-color="#6369FF" stop-opacity="0.01"/>
</radialGradient>
<radialGradient id="paint11_radial" cx="0" cy="0" r="1" gradientUnits="userSpaceOnUse" gradientTransform="translate(1414.98 721.22) scale(10)">
<stop offset="0.21" stop-color="white" stop-opacity="0.2"/>
<stop offset="0.58" stop-color="#B0B3FF" stop-opacity="0.1"/>
<stop offset="1" stop-color="#6369FF" stop-opacity="0.01"/>
</radialGradient>
<clipPath id="clip0">
<rect width="1600" height="800" fill="white"/>
</clipPath>
</defs>
</svg>
