<?xml version="1.0" encoding="UTF-8"?>
<svg width="40px" height="40px" viewBox="0 0 40 40" version="1.1" xmlns="http://www.w3.org/2000/svg" xmlns:xlink="http://www.w3.org/1999/xlink">
    <!-- Generator: Sketch 59.1 (86144) - https://sketch.com -->
    <title>movefaster</title>
    <desc>Created with Sketch.</desc>
    <g id="Page-1" stroke="none" stroke-width="1" fill="none" fill-rule="evenodd">
        <g id="movefaster">
            <rect id="Rectangle" fill="#E2E8F0" fill-rule="nonzero" x="0" y="0" width="40" height="40" rx="4"></rect>
            <g id="Group" stroke-linecap="round" stroke-linejoin="round" transform="translate(8.000000, 8.000000)" stroke="#0069FF" stroke-width="1.5">
                <path d="M9,15.292 L9,15.007 C9,13.3501458 10.3431458,12.007 12,12.007 C13.6568542,12.007 15,13.3501458 15,15.007 L15,15.292 M14.252,5.257 L12.002,12.007 M6.377,7.507 C6.16989322,7.507 6.002,7.67489322 6.002,7.882 C6.002,8.08910678 6.16989322,8.257 6.377,8.257 C6.58410678,8.257 6.752,8.08910678 6.752,7.882 C6.752,7.67489322 6.58410678,7.507 6.377,7.507 M19.127,11.257 C18.9930254,11.257 18.8692278,11.3284746 18.8022405,11.4445 C18.7352532,11.5605254 18.7352532,11.7034746 18.8022405,11.8195 C18.8692278,11.9355254 18.9930254,12.007 19.127,12.007 C19.3341068,12.007 19.502,11.8391068 19.502,11.632 C19.502,11.4248932 19.3341068,11.257 19.127,11.257 M17.627,7.507 C17.4751473,7.50619011 17.3377961,7.59704064 17.2791225,7.73710248 C17.2204489,7.87716431 17.2520368,8.03878543 17.3591269,8.14644977 C17.466217,8.2541141 17.6276669,8.28656579 17.7680405,8.22864205 C17.9084141,8.17071832 17.9999978,8.03385488 18,7.88200024 C18,7.67489322 17.8321068,7.507 17.6249946,7.507 M9.377,4.507 C9.16989322,4.507 9.002,4.67489322 9.002,4.882 C9.002,5.08910678 9.16989322,5.257 9.377,5.257 C9.58410678,5.257 9.752,5.08910678 9.752,4.882 C9.752,4.67489322 9.58410678,4.507 9.377,4.507 M21.431,18.142 C15.8384246,13.9619643 8.16157541,13.9619643 2.569,18.142" id="Shape"></path>
                <circle id="Oval" cx="12" cy="12.007" r="11.25"></circle>
                <path d="M4.87699999,11.257 C4.7430254,11.257 4.61922776,11.3284746 4.55224045,11.4445 C4.48525315,11.5605254 4.48525315,11.7034746 4.55224045,11.8195 C4.61922776,11.9355254 4.7430254,12.007 4.87699999,12.007 C5.08410678,12.007 5.252,11.8391068 5.252,11.632 C5.252,11.4248932 5.08410678,11.257 4.87699999,11.257" id="Path"></path>
            </g>
        </g>
    </g>
</svg>