<?xml version="1.0" encoding="UTF-8"?>
<svg width="40px" height="40px" viewBox="0 0 40 40" version="1.1" xmlns="http://www.w3.org/2000/svg" xmlns:xlink="http://www.w3.org/1999/xlink">
    <!-- Generator: Sketch 59.1 (86144) - https://sketch.com -->
    <title>globalavail</title>
    <desc>Created with Sketch.</desc>
    <g id="Page-1" stroke="none" stroke-width="1" fill="none" fill-rule="evenodd">
        <g id="globalavail">
            <rect id="Rectangle" fill="#E2E8F0" fill-rule="nonzero" x="0" y="0" width="40" height="40" rx="3"></rect>
            <g id="Group" transform="translate(8.000000, 8.000000)">
                <path d="M13.588,23.141 C13.0618,23.2138 12.5312,23.2500015 12,23.2500015 C9.705,23.2512 7.4644,22.5509 5.5786,21.2429 C3.6927,19.9349 2.2517,18.0817 1.44872,15.9318 C0.64569,13.7818 0.51901,11.4377 1.08564,9.2137 C1.65227,6.9897 2.8851,4.9921 4.619,3.4885 C6.3529,1.98483 8.5049,1.0471 10.7867,0.80094 C13.0685,0.55478 15.3711,1.01194 17.3858,2.1112 C19.4004,3.2104 21.031,4.8991 22.0589,6.9511 C23.0868,9.0031 23.463,11.3202 23.137,13.592" id="Path" fill="#FFFFFF" fill-rule="nonzero"></path>
                <path d="M13.588,23.141 C13.0618,23.2138 12.5312,23.2500015 12,23.2500015 C9.705,23.2512 7.4644,22.5509 5.5786,21.2429 C3.6927,19.9349 2.2517,18.0817 1.44872,15.9318 C0.64569,13.7818 0.51901,11.4377 1.08564,9.2137 C1.65227,6.9897 2.8851,4.9921 4.619,3.4885 C6.3529,1.98483 8.5049,1.0471 10.7867,0.80094 C13.0685,0.55478 15.3711,1.01194 17.3858,2.1112 C19.4004,3.2104 21.031,4.8991 22.0589,6.9511 C23.0868,9.0031 23.463,11.3202 23.137,13.592" id="Path" stroke="#0069FF" stroke-width="1.5" stroke-linecap="round" stroke-linejoin="round"></path>
                <path d="M9.289,22.921 C7.767,20.689 6.749,16.633 6.749,12 C6.749,7.367 7.767,3.312 9.289,1.07901" id="Path" fill="#FFFFFF" fill-rule="nonzero"></path>
                <path d="M9.289,22.921 C7.767,20.689 6.749,16.633 6.749,12 C6.749,7.367 7.767,3.312 9.289,1.07901" id="Path" stroke="#0069FF" stroke-width="1.5" stroke-linecap="round" stroke-linejoin="round"></path>
                <line x1="0.77399" y1="11.25" x2="11.249" y2="11.25" id="Path" stroke="#0069FF" stroke-width="1.5" stroke-linecap="round" stroke-linejoin="round"></line>
                <line x1="16.499" y1="11.25" x2="23.225" y2="11.25" id="Path" stroke="#0069FF" stroke-width="1.5" stroke-linecap="round" stroke-linejoin="round"></line>
                <line x1="2.999" y1="5.25" x2="21" y2="5.25" id="Path" stroke="#0069FF" stroke-width="1.5" stroke-linecap="round" stroke-linejoin="round"></line>
                <line x1="2.047" y1="17.25" x2="10.499" y2="17.25" id="Path" stroke="#0069FF" stroke-width="1.5" stroke-linecap="round" stroke-linejoin="round"></line>
                <path d="M14.71,1.07901 C16.058,3.057 17.01,6.465 17.21,10.438 C17.224,10.71 17.2343,10.981 17.241,11.251" id="Path" fill="#FFFFFF" fill-rule="nonzero"></path>
                <path d="M14.71,1.07901 C16.058,3.057 17.01,6.465 17.21,10.438 C17.224,10.71 17.2343,10.981 17.241,11.251" id="Path" stroke="#0069FF" stroke-width="1.5" stroke-linecap="round" stroke-linejoin="round"></path>
                <path d="M13.013,13.846 L15.171,21.037 C15.2039,21.1479 15.2651,21.2483 15.3486,21.3284 C15.432,21.4086 15.5349,21.4656 15.647,21.4939 C15.7592,21.5223 15.8768,21.521 15.9883,21.4901 C16.0998,21.4593 16.2014,21.3999 16.283,21.318 L17.383,20.218 L20.218,23.054 C20.3436,23.1789 20.5134,23.249 20.6905,23.249 C20.8676,23.249 21.0375,23.1789 21.163,23.054 L23.054,21.163 C23.1161,21.101 23.1653,21.0273 23.1989,20.9462 C23.2325,20.8651 23.2498,20.7782 23.2498,20.6905 C23.2498,20.6027 23.2325,20.5158 23.1989,20.4348 C23.1653,20.3537 23.1161,20.28 23.054,20.218 L20.218,17.382 L21.318,16.282 C21.3997,16.2003 21.4588,16.0988 21.4895,15.9874 C21.5203,15.876 21.5216,15.7586 21.4934,15.6466 C21.4652,15.5345 21.4084,15.4317 21.3286,15.3482 C21.2488,15.2647 21.1487,15.2033 21.038,15.17 L13.846,13.012 C13.7302,12.9768 13.607,12.9738 13.4895,13.0032 C13.3721,13.0327 13.2649,13.0935 13.1793,13.1791 C13.0938,13.2648 13.0331,13.3721 13.0038,13.4895 C12.9745,13.607 12.9777,13.7302 13.013,13.846 L13.013,13.846 Z" id="Path" stroke="#0069FF" stroke-width="1.5" fill="#FFFFFF" fill-rule="nonzero" stroke-linecap="round" stroke-linejoin="round"></path>
            </g>
        </g>
    </g>
</svg>