<?xml version="1.0" encoding="UTF-8"?>
<svg width="40px" height="40px" viewBox="0 0 40 40" version="1.1" xmlns="http://www.w3.org/2000/svg" xmlns:xlink="http://www.w3.org/1999/xlink">
    <!-- Generator: Sketch 59.1 (86144) - https://sketch.com -->
    <title>resources</title>
    <desc>Created with Sketch.</desc>
    <g id="Page-1" stroke="none" stroke-width="1" fill="none" fill-rule="evenodd">
        <g id="resources">
            <rect id="Rectangle-9" fill="#E2E8F0" fill-rule="nonzero" x="0" y="0" width="40" height="40" rx="4"></rect>
            <g id="computer-chip" stroke-linecap="round" stroke-linejoin="round" transform="translate(9.000000, 9.000000)" stroke="#0069FF" stroke-width="1.5">
                <rect id="Rectangle" x="2.75" y="2.75" width="16.5" height="16.5" rx="1.5"></rect>
                <line x1="11" y1="2.75" x2="11" y2="0.5" id="Path"></line>
                <line x1="5.75" y1="2.75" x2="5.75" y2="0.5" id="Path"></line>
                <line x1="16.25" y1="2.75" x2="16.25" y2="0.5" id="Path"></line>
                <line x1="11" y1="21.5" x2="11" y2="19.25" id="Path"></line>
                <line x1="5.75" y1="21.5" x2="5.75" y2="19.25" id="Path"></line>
                <line x1="16.25" y1="21.5" x2="16.25" y2="19.25" id="Path"></line>
                <line x1="21.5" y1="11" x2="19.25" y2="11" id="Path"></line>
                <line x1="21.5" y1="16.25" x2="19.25" y2="16.25" id="Path"></line>
                <line x1="21.5" y1="5.75" x2="19.25" y2="5.75" id="Path"></line>
                <line x1="2.75" y1="11" x2="0.5" y2="11" id="Path"></line>
                <line x1="2.75" y1="16.25" x2="0.5" y2="16.25" id="Path"></line>
                <line x1="2.75" y1="5.75" x2="0.5" y2="5.75" id="Path"></line>
                <rect id="Rectangle" x="5.75" y="5.75" width="10.5" height="10.5" rx="1.5"></rect>
                <line x1="13.25" y1="13.25" x2="11" y2="13.25" id="Path"></line>
            </g>
        </g>
    </g>
</svg>