<?xml version="1.0" encoding="UTF-8"?>
<svg width="40px" height="40px" viewBox="0 0 40 40" version="1.1" xmlns="http://www.w3.org/2000/svg" xmlns:xlink="http://www.w3.org/1999/xlink">
    <!-- Generator: Sketch 59.1 (86144) - https://sketch.com -->
    <title>managedservices</title>
    <desc>Created with Sketch.</desc>
    <g id="Page-1" stroke="none" stroke-width="1" fill="none" fill-rule="evenodd">
        <g id="managedservices">
            <rect id="Rectangle-9" fill="#E2E8F0" fill-rule="nonzero" x="0" y="0" width="40" height="40" rx="4"></rect>
            <g id="server-check" stroke-linecap="round" stroke-linejoin="round" transform="translate(8.000000, 8.000000)" stroke="#0069FF" stroke-width="1.5">
                <path d="M5.251,4.875 C5.04389322,4.875 4.876,5.04289322 4.876,5.25 C4.876,5.45710678 5.04389322,5.625 5.251,5.625 C5.45810678,5.625 5.626,5.45710678 5.626,5.25 C5.626,5.04289322 5.45810678,4.875 5.251,4.875" id="Path"></path>
                <path d="M5.251,13.875 C5.04389322,13.875 4.876,14.0428932 4.876,14.25 C4.876,14.4571068 5.04389322,14.625 5.251,14.625 C5.45810678,14.625 5.626,14.4571068 5.626,14.25 C5.626,14.0428932 5.45810678,13.875 5.251,13.875" id="Path"></path>
                <path d="M12.7510001,9.7499999 L5.25100007,9.7499999 C2.76571865,9.7499999 0.751000067,7.73528135 0.751000067,5.2499999 C0.751000067,2.76471865 2.76571865,0.749999899 5.25100007,0.749999899 L17.2510001,0.749999899 C19.2428394,0.74957991 20.9979777,2.05865312 21.5654551,3.96794455 C22.1329325,5.87723597 21.3777189,7.93243312 19.709,9.02" id="Path"></path>
                <path d="M8.2510001,18.75 L5.2510001,18.75 C2.76571866,18.75 0.751000095,16.7352813 0.751000095,14.25 C0.751000095,11.7647187 2.76571866,9.75 5.2510001,9.75" id="Path"></path>
                <line x1="10.501" y1="5.25" x2="17.251" y2="5.25" id="Path"></line>
                <circle id="Oval" cx="17.251" cy="17.25" r="6"></circle>
                <path d="M19.925,15.505 L17.02,19.379 C16.8893026,19.552824 16.689671,19.6614558 16.4727352,19.6768006 C16.2557994,19.6921453 16.0428642,19.6126959 15.889,19.459 L14.389,17.959" id="Path"></path>
            </g>
        </g>
    </g>
</svg>