<?xml version="1.0" encoding="UTF-8"?>
<svg width="40px" height="40px" viewBox="0 0 40 40" version="1.1" xmlns="http://www.w3.org/2000/svg" xmlns:xlink="http://www.w3.org/1999/xlink">
    <!-- Generator: Sketch 59.1 (86144) - https://sketch.com -->
    <title>spendless</title>
    <desc>Created with Sketch.</desc>
    <g id="Page-1" stroke="none" stroke-width="1" fill="none" fill-rule="evenodd">
        <g id="spendless">
            <rect id="Rectangle" fill="#E2E8F0" fill-rule="nonzero" x="0" y="0" width="40" height="40" rx="4"></rect>
            <g id="Group" stroke-linecap="round" stroke-linejoin="round" transform="translate(8.000000, 8.000000)" stroke="#0069FF" stroke-width="1.5">
                <path d="M6.214,9.344 C6.654,9.922 7.347,10.248 8.072,10.219 C9.211,10.219 10.135,9.526 10.135,8.672 C10.135,7.818 9.211,7.126 8.072,7.126 C6.933,7.126 6.01,6.433 6.01,5.578 C6.01,4.723 6.934,4.031 8.072,4.031 C8.79708945,4.00161229 9.49080616,4.3283088 9.93,4.906 M8.072,10.219 L8.072,11.25 M8.072,3 L8.072,4.031 M23.25,20.986 L21.76,18.75 L21.76,13.5 C21.76,11.5 17.96,9.361 16.51,8.25 M18.44,14.794 L14.792,11.87 C14.4627798,11.5407798 13.9829308,11.4122046 13.5332076,11.5327076 C13.0834844,11.6532105 12.7322105,12.0044844 12.6117076,12.4542076 C12.4912046,12.9039308 12.6197798,13.3837798 12.949,13.713 L16.482,17.7 L16.482,20.2 C16.482,21.381 18.17,23.245 18.17,23.245" id="Shape"></path>
                <path d="M13.51,23.25 L2.134,23.25 C1.37499902,23.249448 0.76,22.6340012 0.76,21.875 L0.76,2.125 C0.76,1.366 1.375,0.751 2.134,0.75 L15.134,0.75 C15.894,0.75 16.509,1.365 16.51,2.125 L16.51,13.247" id="Path"></path>
                <path d="M10.51,14.25 L4.51,14.25 C4.09578644,14.25 3.76,14.5857864 3.76,15 L3.76,19.5 C3.76,19.914 4.096,20.25 4.51,20.25 L13.51,20.25 M3.76,17.25 L12.01,17.25 M8.26,14.25 L8.26,20.25" id="Shape"></path>
            </g>
        </g>
    </g>
</svg>